<svg width="2710" height="1655" viewBox="0 0 2710 1655" fill="none" xmlns="http://www.w3.org/2000/svg">
<path d="M1850.08 316.854C2262.66 477.403 2142.27 316.244 2265.43 635.254C2234.09 858.676 2115.75 971.177 2083.02 1071.84C2043.27 1194.11 1990.76 1268.1 1972.66 1285.57C1777.69 1473.74 1542.75 1463.2 1180.08 1404.44C817.403 1345.67 951.528 1256.88 702.719 1156.18C455.487 1056.12 673.739 668.095 760.12 514.52L761.757 511.609C841.651 369.545 849.931 227.63 1244.1 226.807C1712.97 225.827 1473.94 170.488 1850.08 316.854Z" stroke="#20B2AA" stroke-width="90"/>
<path d="M1850.08 316.854C2262.66 477.403 2142.27 316.244 2265.43 635.254C2234.09 858.676 2115.75 971.177 2083.02 1071.84C2043.27 1194.11 1990.76 1268.1 1972.66 1285.57C1777.69 1473.74 1542.75 1463.2 1180.08 1404.44C817.403 1345.67 951.528 1256.88 702.719 1156.18C455.487 1056.12 673.739 668.095 760.12 514.52L761.757 511.609C841.651 369.545 849.931 227.63 1244.1 226.807C1712.97 225.827 1473.94 170.488 1850.08 316.854Z" stroke="black" stroke-opacity="0.2" stroke-width="90"/>
<path d="M1687.27 528.454C1963.53 630.457 1882.85 528.214 1965.46 730.544C1944.59 872.188 1865.44 943.459 1843.58 1007.27C1817.03 1084.77 1781.92 1131.66 1769.81 1142.73C1639.4 1261.94 1482.13 1255.14 1239.33 1217.7C996.533 1180.25 1086.27 1124.02 919.67 1060.05C754.127 996.485 900.026 750.565 957.77 653.234L958.865 651.39C1012.27 561.355 1017.74 471.378 1281.59 471.054C1595.45 470.669 1435.41 435.461 1687.27 528.454Z" stroke="#20B2AA" stroke-width="95"/>
<path d="M1548.71 717.604C1666.91 766.304 1632.45 717.346 1667.67 814.285C1658.63 882.207 1624.69 916.433 1615.28 947.039C1603.86 984.216 1588.79 1006.72 1583.6 1012.03C1527.67 1069.28 1460.34 1066.14 1356.42 1048.36C1252.49 1030.59 1290.95 1003.57 1219.67 973.019C1148.83 942.666 1211.48 824.662 1236.28 777.958L1236.75 777.073C1259.68 733.87 1262.09 690.73 1375.05 690.382C1509.43 689.968 1440.94 673.206 1548.71 717.604Z" stroke="#20B2AA" stroke-width="100"/>
</svg>
