<svg width="2710" height="1655" viewBox="0 0 2710 1655" fill="none" xmlns="http://www.w3.org/2000/svg">
<path d="M1850.08 316.854C2254.5 474.227 2154.33 297.988 2277.5 616.998C2235 836.998 2115.75 971.176 2083.02 1071.84C2043.27 1194.11 1990.76 1268.1 1972.66 1285.57C1777.69 1473.74 1542.75 1463.2 1180.08 1404.44C817.403 1345.67 951.527 1256.88 702.718 1156.18C455.487 1056.12 673.74 668.094 760.12 514.519L761.757 511.608C841.651 369.545 849.931 227.63 1244.1 226.807C1712.97 225.827 1473.94 170.487 1850.08 316.854Z" stroke="#FF69B4" stroke-width="90"/>
<path d="M1850.08 316.854C2254.5 474.227 2154.33 297.988 2277.5 616.998C2235 836.998 2115.75 971.176 2083.02 1071.84C2043.27 1194.11 1990.76 1268.1 1972.66 1285.57C1777.69 1473.74 1542.75 1463.2 1180.08 1404.44C817.403 1345.67 951.527 1256.88 702.718 1156.18C455.487 1056.12 673.74 668.094 760.12 514.519L761.757 511.608C841.651 369.545 849.931 227.63 1244.1 226.807C1712.97 225.827 1473.94 170.487 1850.08 316.854Z" stroke="black" stroke-opacity="0.2" stroke-width="90"/>
<path d="M1687.27 528.454C1932.83 636.971 1882.85 528.214 1965.46 730.543C1996 871.499 1865.44 943.459 1843.58 1007.27C1817.03 1084.77 1781.92 1131.66 1769.81 1142.73C1639.4 1261.94 1482.13 1255.14 1239.33 1217.7C996.533 1180.25 1086.27 1124.02 919.67 1060.05C754.127 996.485 900.026 750.565 957.77 653.234L958.865 651.389C1012.27 561.354 1017.74 471.378 1281.59 471.054C1595.45 470.669 1441.7 419.936 1687.27 528.454Z" stroke="#FF69B4" stroke-width="95"/>
<path d="M1451.71 696.601C1586.5 717 1644.28 693.558 1679.5 790.498C1670.46 858.419 1679.5 906.5 1579 952.015C1543.57 968.059 1491.79 985.718 1486.6 991.031C1430.67 1048.28 1363.34 1045.13 1259.41 1027.36C1155.49 1009.59 1169.13 1014.11 1122.66 952.016C1077 891 1115.29 802.15 1139.74 756.07C1162.68 712.867 1165.09 669.728 1278.05 669.38C1412.43 668.966 1336.47 679.162 1451.71 696.601Z" stroke="#FF69B4" stroke-width="100"/>
</svg>
