<svg width="2710" height="1655" viewBox="0 0 2710 1655" fill="none" xmlns="http://www.w3.org/2000/svg">
<path d="M1796.54 451.57C2156.73 584.406 2051.54 451.262 2159.25 714.739C2132.05 899.189 2028.84 991.997 2000.35 1075.09C1965.73 1176.01 1919.96 1237.07 1904.17 1251.48C1734.14 1406.72 1529.09 1397.86 1212.53 1349.1C895.969 1300.33 1012.97 1227.11 795.752 1143.8C579.916 1061.02 770.134 740.787 845.419 614.044L846.846 611.641C916.477 494.398 923.608 377.231 1267.61 376.815C1676.82 376.321 1468.17 330.469 1796.54 451.57Z" stroke="#2F4F4F" stroke-width="13"/>
<path d="M1796.54 451.57C2156.73 584.406 2051.54 451.262 2159.25 714.739C2132.05 899.189 2028.84 991.997 2000.35 1075.09C1965.73 1176.01 1919.96 1237.07 1904.17 1251.48C1734.14 1406.72 1529.09 1397.86 1212.53 1349.1C895.969 1300.33 1012.97 1227.11 795.752 1143.8C579.916 1061.02 770.134 740.787 845.419 614.044L846.846 611.641C916.477 494.398 923.608 377.231 1267.61 376.815C1676.82 376.321 1468.17 330.469 1796.54 451.57Z" stroke="black" stroke-opacity="0.2" stroke-width="13"/>
<path d="M1683.04 569.651C1932.33 665.518 1859.57 569.317 1934.03 759.73C1915.11 893.076 1843.62 960.209 1823.86 1020.29C1799.86 1093.26 1768.14 1137.42 1757.21 1147.84C1639.42 1260.13 1497.48 1253.81 1278.35 1218.7C1059.22 1183.59 1140.25 1130.61 989.908 1070.48C840.524 1010.74 972.348 779.165 1024.52 687.513L1025.51 685.776C1073.77 600.994 1078.75 516.294 1316.9 515.843C1600.19 515.308 1455.77 482.253 1683.04 569.651Z" stroke="#2F4F4F" stroke-width="15"/>
<path d="M1566.33 680.607C1702.07 741.106 1662.54 680.171 1702.88 800.872C1692.4 885.489 1653.35 928.169 1642.5 966.305C1629.33 1012.63 1611.99 1040.68 1606.02 1047.31C1541.68 1118.69 1464.33 1114.87 1344.95 1092.87C1225.57 1070.88 1269.8 1037.16 1187.94 999.211C1106.6 961.5 1178.74 814.425 1207.29 756.216L1207.83 755.113C1234.24 701.267 1237.07 647.528 1366.86 646.939C1521.25 646.238 1442.58 625.453 1566.33 680.607Z" stroke="#2F4F4F" stroke-width="17"/>
</svg>
