<svg width="2347" height="1313" viewBox="0 0 2347 1313" fill="none" xmlns="http://www.w3.org/2000/svg">
<path d="M1608.96 273.668C1969.15 406.504 1863.96 273.36 1971.67 536.837C1944.47 721.287 1841.26 814.095 1812.77 897.185C1778.16 998.112 1732.38 1059.17 1716.6 1073.58C1546.56 1228.82 1341.51 1219.96 1024.95 1171.19C708.391 1122.43 825.387 1049.21 608.174 965.898C392.337 883.12 582.555 562.885 657.84 436.142L659.267 433.739C728.898 316.496 736.029 199.328 1080.03 198.913C1489.24 198.418 1280.59 152.566 1608.96 273.668Z" stroke="#E6E6FA" stroke-width="13"/>
<path d="M1608.96 273.668C1969.15 406.504 1863.96 273.36 1971.67 536.837C1944.47 721.287 1841.26 814.095 1812.77 897.185C1778.16 998.112 1732.38 1059.17 1716.6 1073.58C1546.56 1228.82 1341.51 1219.96 1024.95 1171.19C708.391 1122.43 825.387 1049.21 608.174 965.898C392.337 883.12 582.555 562.885 657.84 436.142L659.267 433.739C728.898 316.496 736.029 199.328 1080.03 198.913C1489.24 198.418 1280.59 152.566 1608.96 273.668Z" stroke="black" stroke-opacity="0.2" stroke-width="13"/>
<path d="M1495.46 391.749C1744.76 487.615 1672 391.415 1746.45 581.828C1727.53 715.173 1656.05 782.307 1636.28 842.383C1612.28 915.355 1580.56 959.513 1569.63 969.935C1451.85 1082.23 1309.9 1075.91 1090.77 1040.8C871.64 1005.69 952.667 952.704 802.329 892.579C652.945 832.834 784.769 601.263 836.943 509.611L837.932 507.874C886.188 423.092 891.176 338.391 1129.33 337.941C1412.61 337.405 1268.19 304.351 1495.46 391.749Z" stroke="#E6E6FA" stroke-width="15"/>
<path d="M1378.75 502.705C1514.5 563.204 1474.96 502.268 1515.3 622.969C1504.82 707.586 1465.77 750.266 1454.93 788.403C1441.75 834.727 1424.41 862.78 1418.44 869.406C1354.1 940.792 1276.75 936.967 1157.37 914.971C1037.99 892.975 1082.22 859.26 1000.36 821.309C919.025 783.598 991.164 636.523 1019.72 578.314L1020.26 577.211C1046.66 523.364 1049.49 469.625 1179.28 469.036C1333.67 468.336 1255 447.55 1378.75 502.705Z" stroke="#E6E6FA" stroke-width="17"/>
</svg>
